<mxfile host="app.diagrams.net" modified="2023-10-14T06:37:31.351Z" agent="Mozilla/5.0 (X11; Ubuntu; Linux x86_64; rv:109.0) Gecko/20100101 Firefox/117.0" version="22.0.4" etag="dglkCn6MuJZH6ITR_xDG" type="github">
  <diagram name="Page-1" id="7WIREp3eyjfJ_ehYdHLS">
    <mxGraphModel>
      <root>
        <mxCell id="0" />
        <mxCell id="1" parent="0" />
      </root>
    </mxGraphModel>
  </diagram>
</mxfile>
